<?xml version="1.0" encoding="utf-8"?>
<!-- Generator: Adobe Illustrator 24.1.0, SVG Export Plug-In . SVG Version: 6.00 Build 0)  -->
<svg version="1.1" id="Layer_1" xmlns="http://www.w3.org/2000/svg" xmlns:xlink="http://www.w3.org/1999/xlink" x="0px" y="0px"
	 viewBox="0 0 32 32" style="enable-background:new 0 0 32 32;" xml:space="preserve">
<path d="M4,9.4h24c1.1,0,2-0.6,2-1.4s-0.9-1.4-2-1.4H4C2.9,6.6,2,7.2,2,8S2.9,9.4,4,9.4z M28,14.6H4c-1.1,0-2,0.6-2,1.4
	c0,0.8,0.9,1.4,2,1.4h24c1.1,0,2-0.6,2-1.4C30,15.2,29.1,14.6,28,14.6z M28,22.6H4c-1.1,0-2,0.6-2,1.4c0,0.8,0.9,1.4,2,1.4h24
	c1.1,0,2-0.6,2-1.4C30,23.2,29.1,22.6,28,22.6z"/>
</svg>
