<?xml version="1.0" encoding="utf-8"?>
<!-- Generator: Adobe Illustrator 24.1.0, SVG Export Plug-In . SVG Version: 6.00 Build 0)  -->
<svg version="1.1" id="Layer_1" xmlns="http://www.w3.org/2000/svg" xmlns:xlink="http://www.w3.org/1999/xlink" x="0px" y="0px"
	 viewBox="0 0 566.9 566.9" style="enable-background:new 0 0 566.9 566.9;" xml:space="preserve">
<g>
	<path d="M414.1,379.2c2,1.3,4.4,2.6,6.3,4.4c41.7,41.7,83.4,83.4,125.1,125.1c9.7,9.7,11.9,20.4,6.7,31.1c-7,14.8-25.9,19.2-38.8,9
		c-2.3-1.7-4.2-3.9-6.3-5.9c-41-41-82.1-82.1-123.1-123.1c-1.9-1.9-3-4.3-4.4-6.3c-106.2,82.6-247.3,54.2-318.1-37.4
		C-8.4,286-0.2,159.3,81.5,78c79.4-79.1,207-85.9,296.3-16.1C468.5,132.9,496.3,273.7,414.1,379.2z M65.5,244
		c4,97.8,84.7,170.6,178.9,167.1c97.6-3.4,170.6-84.4,167.1-178.7C408,134.6,326.9,61.8,232.7,65.1C135.1,68.7,62.7,149.8,65.5,244z
		"/>
</g>
</svg>
