<?xml version="1.0" encoding="utf-8"?>
<!-- Generator: Adobe Illustrator 24.1.0, SVG Export Plug-In . SVG Version: 6.00 Build 0)  -->
<svg version="1.1" id="Layer_1" xmlns="http://www.w3.org/2000/svg" xmlns:xlink="http://www.w3.org/1999/xlink" x="0px" y="0px"
	 viewBox="0 0 566.9 566.9" style="enable-background:new 0 0 566.9 566.9;" xml:space="preserve">
<style type="text/css">
	.st0{fill:none;stroke:#1D1D1B;stroke-width:49;stroke-miterlimit:10;}
</style>
<g>
	<path class="st0" d="M283.9,133.3c-46.3,0-84.2,37.9-84.2,84.2s37.9,84.2,84.2,84.2s84.2-37.9,84.2-84.2
		C368.1,171,330.2,133.3,283.9,133.3L283.9,133.3z"/>
	<path class="st0" d="M284.6,32h-0.8C181.5,32,98.3,115.2,98.3,217.5c0,56.1,28.6,99.8,60.6,143.3l124.6,170.1
		c0,0,117.9-159.9,125.3-170c31.9-43.6,60.6-87.3,60.6-143.3C469.4,115.5,386.6,32.4,284.6,32L284.6,32z"/>
</g>
</svg>
