<svg version="1.1" id="poster" xmlns="http://www.w3.org/2000/svg" x="0px" y="0px"
	 viewBox="0 0 1008 661" style="enable-background:new 0 0 1008 661;" xml:space="preserve">
<style type="text/css">
	.st0{fill:#80FD84;}
	.st1{fill:#FF485A;}
	.st2{fill:#C1FD00;}
	.st3{fill:#FEBF00;}
	.st4{fill:#7DFD7D;}
	.st5{fill:#FF475A;}
	.st6{fill:#4A8FA6;}
	.st7{fill:#4E8EA4;}
</style>
<g id="top">
	<rect x="302.5" y="13.5" class="top st0" width="148" height="33"/>
	<rect x="574" y="13.5" class="top st1" width="33" height="33"/>
</g>
<g id="right">
	<rect x="957.2" y="12.3" class="right st2" width="33" height="33"/>
	<rect x="958.2" y="76.3" class="right st3" width="33" height="155"/>
	<rect x="957.2" y="374.3" class="right st1" width="33" height="33"/>
	<rect x="957.2" y="519.3" class="right st4" width="33" height="123"/>
</g>
<g id="bottom">
	<rect x="698.2" y="612.3" class="bottom st3" width="33" height="33"/>
	<rect x="206.2" y="612.3" class="bottom st3" width="121" height="33"/>
	<rect x="380.2" y="612.3" class="bottom st5" width="152" height="33"/>
</g>
<g id="left">
	<rect x="14.5" y="107.5" class="left st1" width="33" height="155"/>
	<rect x="14.2" y="360.3" class="left st6" width="32" height="142"/>
	<rect x="15" y="534" class="left st1" width="31.5" height="45"/>
	<rect x="14.5" y="12.5" class="left st7" width="33" height="33"/>
	<rect x="15.5" y="316.5" class="left st3" width="31" height="31"/>
</g>
<g id="M">
	<rect x="401.2" y="235.3" class="m st1" width="33" height="155"/>
	<rect x="462.2" y="235.3" class="m st6" width="33" height="155"/>
	<rect x="340.2" y="235.3" class="m st2" width="33" height="155"/>
	<rect x="340.2" y="235.3" class="m st3" width="155" height="33"/>
</g>
<g id="E">
	<rect x="546.2" y="296.3" class="e st3" width="89" height="33"/>
	<rect x="635.2" y="296.3" class="e st6" width="33" height="33"/>
	<rect x="513.2" y="270.3" class="e st1" width="33" height="89"/>
	<rect x="546.2" y="359.3" class="e st1" width="122" height="33"/>
	<rect x="513.2" y="237.3" class="e st2" width="155" height="33"/>
	<rect x="513.2" y="359.3" class="e st2" width="33" height="33"/>
</g>
</svg>
