<svg xmlns="http://www.w3.org/2000/svg" x="0px" y="0px" viewBox="0 0 20 20" style="enable-background:new 0 0 20 20;" >
<path d="M10.1,0.8c-5.3,0-9.6,4.3-9.6,9.4c0,4.2,2.8,7.7,6.5,8.9c0.4,0.1,0.6-0.2,0.6-0.4c0-0.2,0-0.9,0-1.6
	c-2.7,0.5-3.2-1.3-3.2-1.3c-0.4-1.1-1.1-1.4-1.1-1.4c-0.9-0.5,0.1-0.5,0.1-0.5c1,0.1,1.5,1,1.5,1c0.9,1.4,2.3,1.1,2.8,0.8
	c0.1-0.6,0.3-1.1,0.6-1.3C6.3,14.1,4,13.3,4,9.7c0-1.1,0.3-1.8,1-2.6C4.8,7,4.5,6.1,5,4.8c0,0,0.8-0.2,2.7,1
	c0.8-0.2,1.5-0.3,2.4-0.3s1.6,0.1,2.4,0.3c1.8-1.2,2.6-1,2.6-1c0.5,1.3,0.2,2.3,0.1,2.5c0.6,0.6,1,1.5,1,2.6c0,3.6-2.3,4.4-4.4,4.6
	c0.3,0.3,0.6,0.9,0.6,1.7c0,1.3,0,2.3,0,2.6c0,0.2,0.2,0.5,0.6,0.4c3.9-1.3,6.5-4.7,6.5-8.9C19.6,5.1,15.3,0.8,10.1,0.8z"/>
</svg>
