<svg xmlns="http://www.w3.org/2000/svg" x="0px" y="0px"
	 viewBox="0 0 20 20" style="enable-background:new 0 0 20 20;">
	<path d="M10,6.1c-2.2,0-3.9,1.7-3.9,3.9s1.7,3.9,3.9,3.9s3.9-1.7,3.9-3.9S12.2,6.1,10,6.1z M10,12.3c-1.3,0-2.3-1-2.3-2.3
		s1-2.3,2.3-2.3c1.3,0,2.3,1,2.3,2.3S11.3,12.3,10,12.3z"/>
	<path d="M10,0.5c-5.2,0-9.5,4.3-9.5,9.5s4.3,9.5,9.5,9.5s9.5-4.3,9.5-9.5S15.2,0.5,10,0.5z M10,15.8c-3.9,0-7.2-2.4-8.5-5.8
		C2.8,6.6,6.1,4.2,10,4.2c3.9,0,7.2,2.4,8.5,5.8C17.2,13.4,13.9,15.8,10,15.8z"/>
</svg>
